<?xml version="1.0" encoding="UTF-8"?>
<svg xmlns="http://www.w3.org/2000/svg" xmlns:xlink="http://www.w3.org/1999/xlink" width="375pt" height="374.999991pt" viewBox="0 0 375 374.999991" version="1.2">
<defs>
<clipPath id="clip1">
  <path d="M 37.5 37.5 L 375 37.5 L 375 375 L 37.5 375 Z M 37.5 37.5 "/>
</clipPath>
</defs>
<g id="surface1">
<g clip-path="url(#clip1)" clip-rule="nonzero">
<path style=" stroke:none;fill-rule:nonzero;fill:rgb(0%,0%,0%);fill-opacity:1;" d="M 366.964844 37.5 L 45.535156 37.5 C 41.101562 37.5 37.5 41.101562 37.5 45.535156 L 37.5 366.964844 C 37.5 371.398438 41.101562 375 45.535156 375 L 366.964844 375 C 371.398438 375 375 371.398438 375 366.964844 L 375 45.535156 C 375 41.101562 371.398438 37.5 366.964844 37.5 Z M 326.785156 113.839844 L 312.152344 131.492188 C 311.230469 132.410156 310.714844 133.648438 310.714844 134.933594 L 310.714844 268.527344 C 310.714844 269.8125 311.230469 271.050781 312.152344 271.964844 L 326.785156 290.996094 L 326.785156 294.644531 L 246.429688 294.644531 L 246.429688 290.996094 L 269.097656 271.964844 C 270.019531 271.050781 270.535156 269.8125 270.535156 268.527344 L 270.535156 149.027344 L 205.027344 294.644531 L 192.621094 294.644531 L 125.894531 153.011719 L 125.894531 258.34375 C 125.894531 260.113281 126.503906 261.824219 127.621094 263.207031 L 150 290.996094 L 150 294.644531 L 85.714844 294.644531 L 85.714844 290.996094 L 108.078125 263.367188 C 109.203125 261.984375 109.820312 260.257812 109.820312 258.480469 L 109.820312 137.046875 C 109.820312 135.90625 109.417969 134.804688 108.679688 133.929688 L 93.75 113.839844 L 93.75 109.820312 L 150.78125 109.820312 L 212.042969 239.863281 L 270.550781 109.820312 L 326.785156 109.820312 Z M 326.785156 113.839844 "/>
</g>
</g>
</svg>
