<?xml version="1.0" encoding="UTF-8"?>
<svg xmlns="http://www.w3.org/2000/svg" xmlns:xlink="http://www.w3.org/1999/xlink" width="375pt" height="374.999991pt" viewBox="0 0 375 374.999991" version="1.2">
<defs>
<clipPath id="clip1">
  <path d="M 0 87.1875 L 375 87.1875 L 375 178 L 0 178 Z M 0 87.1875 "/>
</clipPath>
<clipPath id="clip2">
  <path d="M 322 227 L 350 227 L 350 288.1875 L 322 288.1875 Z M 322 227 "/>
</clipPath>
</defs>
<g id="surface1">
<g clip-path="url(#clip1)" clip-rule="nonzero">
<path style=" stroke:none;fill-rule:nonzero;fill:rgb(94.509888%,94.509888%,94.509888%);fill-opacity:1;" d="M 197.882812 177.832031 L 374.886719 132.527344 L 221.222656 87.21875 L 0.21875 125.222656 L 197.882812 177.832031 "/>
</g>
<path style=" stroke:none;fill-rule:nonzero;fill:rgb(94.509888%,94.509888%,94.509888%);fill-opacity:1;" d="M 197.882812 177.832031 L 0.21875 125.222656 L 0.21875 144.214844 L 197.882812 196.835938 L 374.886719 151.527344 L 374.886719 132.527344 L 197.882812 177.832031 "/>
<path style=" stroke:none;fill-rule:nonzero;fill:rgb(94.509888%,94.509888%,94.509888%);fill-opacity:1;" d="M 197.882812 206.332031 L 92.121094 178.183594 L 92.121094 234.832031 C 92.121094 234.832031 126.035156 264.0625 193.507812 264.0625 C 260.972656 264.0625 301.457031 234.832031 301.457031 234.832031 L 301.457031 177.832031 L 197.882812 206.332031 "/>
<g clip-path="url(#clip2)" clip-rule="nonzero">
<path style=" stroke:none;fill-rule:nonzero;fill:rgb(94.509888%,94.509888%,94.509888%);fill-opacity:1;" d="M 349.960938 285.054688 L 343.855469 286.480469 L 340.964844 254.785156 L 341.210938 288.253906 L 334.464844 288.253906 L 334.464844 270.988281 L 331.464844 286.652344 L 322.976562 285.054688 L 334.464844 227.726562 L 343.855469 227.726562 L 349.960938 285.054688 "/>
</g>
<path style=" stroke:none;fill-rule:nonzero;fill:rgb(94.509888%,94.509888%,94.509888%);fill-opacity:1;" d="M 346.964844 227.726562 C 346.964844 231.738281 343.71875 234.988281 339.714844 234.988281 C 335.714844 234.988281 332.46875 231.738281 332.46875 227.726562 C 332.46875 223.722656 335.714844 220.46875 339.714844 220.46875 C 343.71875 220.46875 346.964844 223.722656 346.964844 227.726562 "/>
<path style=" stroke:none;fill-rule:nonzero;fill:rgb(94.509888%,94.509888%,94.509888%);fill-opacity:1;" d="M 343.042969 230.355469 L 334.996094 230.355469 L 334.996094 144.785156 L 343.042969 144.785156 L 343.042969 230.355469 "/>
</g>
</svg>
